<?xml version="1.0" ?>
<svg viewBox="0 0 480 480" xmlns="http://www.w3.org/2000/svg">
	<g data-name="07-healthy" id="_07-healthy">
		<path fill="#FFFFFF" d="M379.708,152a40.142,40.142,0,0,0,34.633-19.993,8,8,0,0,0,0-8.014,39.992,39.992,0,0,0-69.265,0,8,8,0,0,0,0,8.014A40.142,40.142,0,0,0,379.708,152Zm0-32a24.089,24.089,0,0,1,17.874,8,23.966,23.966,0,0,1-35.747,0A24.088,24.088,0,0,1,379.708,120Z"/>
		<path fill="#FFFFFF" d="M431.666,410.773c-5.256-4.311-11.463-8.91-18.5-13.718C447.928,376.334,472,332.831,472,288c0-40.636-16.012-89.335-51.784-106.528-14.794-7.11-37.554-10.8-67.444,5.581-1.429-14.286-5.77-26.229-9.856-37.442-7.721-21.184-13.819-37.916.239-66.033l-14.31-7.156c-17.14,34.28-8.916,56.845-.962,78.668,4.625,12.69,9.338,25.637,9.3,41.948-.4.289-.787.561-1.185.857-21.959-16.334-40.706-22.078-56-22.431V128a8.129,8.129,0,0,0-1.6-4.8L232,61.334V16a8,8,0,0,0-8-8H80a8,8,0,0,0-8,8V61.334L25.6,123.2A8.129,8.129,0,0,0,24,128V301.146A32.521,32.521,0,0,0,9.449,320.523c-3.379,11.658-2.547,28.6,20.608,43.134a108.6,108.6,0,0,0,16.9,8.444c-23.713,12.892-26.552,28.7-26.467,35.869.175,14.651,11.621,27.4,29.16,32.486a28.668,28.668,0,0,0,8.017,1.1c14.415,0,32.211-9.751,53.049-29.1,6.265-5.817,12-11.739,16.792-16.971a44.944,44.944,0,0,0,7.383,19.843c9.714,14.386,28.249,24.695,61.975,34.47,32.415,9.395,93.674,18.3,145.66,21.181,12.107.67,23.488,1,33.956,1a318.51,318.51,0,0,0,38-1.951c24.567-3.032,37.474-9.5,40.619-20.351S450.8,426.472,431.666,410.773ZM335.1,215.925a122.047,122.047,0,0,1-4.413,15.463,24.109,24.109,0,0,1-15.484-11.394l-13.85,8.012a40.011,40.011,0,0,0,69.288,0l-13.85-8.012a24.043,24.043,0,0,1-8.355,8.5,118.942,118.942,0,0,0,4.419-22.844c22.537-14.622,43.238-18.023,60.427-9.761C438.435,207.98,456,245.856,456,288c0,41.742-24.742,83.505-58.132,99.088-8.119-5.065-16.992-10.29-26.5-15.6-45.468-25.367-102-50.6-134.411-59.993-6.983-2.024-13.42-3.674-19.391-4.967A112.681,112.681,0,0,1,216,288c0-42.144,17.565-80.02,42.715-92.107,20.166-9.693,45.162-3.346,72.287,18.354A7.949,7.949,0,0,0,335.1,215.925ZM40,136H168v48H40Zm144,0h80v41.134a61.013,61.013,0,0,0-12.216,4.338C216.012,198.665,200,247.364,200,288a127.67,127.67,0,0,0,.994,15.741,92.077,92.077,0,0,0-16.994-.47Zm8-16,32-42.667L256,120ZM88,24H216V56H88ZM84,72H208l-36,48H48ZM40,200H168V306.727c-.623.242-1.242.492-1.849.758A44.931,44.931,0,0,0,149.3,320.277c-1.255-6.98-2.928-15.037-5.109-23.292-8.675-32.832-21-51.777-36.633-56.307-17.54-5.084-34.032-.43-42.012,11.858-3.9,6.008-9.961,20.888,3.184,44.462a108.809,108.809,0,0,0-18.8-1.9h-.3a67.31,67.31,0,0,0-9.625.657Zm14.1,225.088c-10.612-3.075-17.526-9.87-17.615-17.309-.1-8.477,9.2-20.508,35.614-28.849a8,8,0,0,0-.184-15.312c-36.191-10.491-51.6-23.13-47.1-38.64,2.676-9.234,10.767-13.836,24.514-13.836,9.345,0,21.306,2.128,35.954,6.373a8,8,0,0,0,8.342-12.842C75.768,283.5,74.34,268.361,78.959,261.252c4.053-6.239,13.529-8.282,24.141-5.207,17.319,5.02,29.775,52.911,33.31,86.238l-8.042,27.745C107.56,396.3,71.424,430.106,54.105,425.088ZM439.74,445.236c-1.118,3.858-21.214,13.934-96.328,9.776-12.607-.7-25.755-1.754-38.879-3.085l7.812-26.955-15.367-4.454L288.39,450.15c-34.2-4.059-66.637-9.789-87.069-15.711-29.428-8.529-45.827-17.182-53.17-28.056-6.7-9.922-6.818-23.611-.4-45.773s13.844-33.667,24.811-38.468c4.66-2.04,10.289-3.07,17.152-3.07,10.842,0,24.76,2.572,42.781,7.794,2.408.7,4.97,1.5,7.642,2.372l-20,69.01,15.367,4.454,19.745-68.128c31.467,11.819,73.178,31.286,108.316,50.891,8.545,4.767,16.166,9.237,22.972,13.42L378.27,427.42l15.367,4.455,6.957-24C433.889,430.107,440.6,442.259,439.74,445.236Z"/>
	</g>
</svg>