<?xml version="1.0" ?>
<svg style="enable-background:new 0 0 512 512;" version="1.1" viewBox="0 0 512 512" xml:space="preserve" xmlns="http://www.w3.org/2000/svg" xmlns:xlink="http://www.w3.org/1999/xlink">
	<style type="text/css">
	.st0{display:none;}
	.st1{fill:#FFFFFF;}
</style>
	<g class="st0" id="Layer_1"/>
	<g id="Layer_2">
		<g>
			<path fill="#FFFFFF" class="st1" d="M97.93,252.64h61.62l-12.85,118.9c-1.98,18.29,3.94,36.64,16.23,50.33c12.29,13.69,29.9,21.54,48.3,21.54    s36-7.85,48.29-21.54c12.29-13.69,18.21-32.04,16.23-50.33l-9.16-84.72c-0.42-3.84-3.87-6.62-7.71-6.21    c-3.84,0.42-6.62,3.87-6.21,7.71l9.16,84.72c1.55,14.35-3.09,28.74-12.73,39.47s-23.45,16.9-37.88,16.9s-28.24-6.16-37.88-16.9    s-14.28-25.13-12.73-39.47l13.01-120.41h81.47h69.41c18.23,0,35.15-9.06,45.28-24.24c10.06-15.1,11.92-34.08,4.96-50.79    c-27.59-66.24-91.78-109.04-163.52-109.04c-30.85,0-61.23,8.06-87.85,23.3c-3.35,1.92-4.52,6.2-2.6,9.55    c1.92,3.36,6.2,4.52,9.55,2.6c24.51-14.03,52.48-21.45,80.89-21.45c66.07,0,125.18,39.42,150.6,100.42    c5.23,12.56,3.89,26.28-3.68,37.64c-7.52,11.28-20.09,18.01-33.63,18.01h-69.41h-87.75H97.93c-13.54,0-26.11-6.73-33.63-18.01    c-7.57-11.36-8.92-25.08-3.68-37.64c7.56-18.15,18.25-34.64,31.78-49.03c2.65-2.82,2.51-7.25-0.3-9.89    c-2.82-2.65-7.25-2.51-9.89,0.3C67.51,140,55.9,157.91,47.7,177.62c-6.96,16.71-5.1,35.69,4.96,50.79    C62.78,243.58,79.7,252.64,97.93,252.64z"/>
			<path fill="#FFFFFF"  class="st1" d="M98.68,117.11c0.25,0.39,0.55,0.74,0.87,1.07c0.32,0.32,0.68,0.61,1.06,0.87c0.38,0.25,0.79,0.47,1.21,0.64    c0.42,0.18,0.86,0.31,1.31,0.4s0.91,0.14,1.37,0.14c1.84,0,3.64-0.75,4.95-2.05c1.3-1.31,2.05-3.11,2.05-4.95    c0-1.84-0.75-3.65-2.05-4.95c-0.32-0.32-0.68-0.62-1.07-0.87c-0.38-0.25-0.78-0.47-1.21-0.65c-0.42-0.17-0.86-0.3-1.3-0.4    c-0.91-0.18-1.84-0.18-2.74,0c-0.45,0.1-0.89,0.23-1.31,0.4c-0.42,0.18-0.83,0.4-1.21,0.65s-0.74,0.55-1.06,0.87    s-0.62,0.68-0.87,1.06s-0.47,0.79-0.65,1.21c-0.17,0.42-0.31,0.86-0.4,1.31s-0.13,0.91-0.13,1.37c0,0.45,0.04,0.91,0.13,1.37    c0.09,0.44,0.23,0.88,0.4,1.31C98.21,116.33,98.43,116.73,98.68,117.11z"/>
			<path fill="#FFFFFF"  class="st1" d="M182.41,368.37c-3.85-0.42-7.3,2.36-7.71,6.21c-1.14,10.51,2.13,20.63,9.19,28.49    c7.06,7.86,16.77,12.2,27.34,12.2c3.87,0,7-3.13,7-7s-3.13-7-7-7c-6.54,0-12.55-2.68-16.92-7.55c-4.37-4.87-6.39-11.13-5.69-17.63    C189.03,372.23,186.25,368.78,182.41,368.37z"/>
			<path fill="#FFFFFF"  class="st1" d="M438.35,282.53c-15.03-12.08-33.94-18.74-53.26-18.74c-19.32,0-38.24,6.66-53.27,18.74    c-14.8,11.9-25.31,28.58-29.59,46.98c-1.48,6.37,0.01,12.98,4.1,18.13c4.14,5.22,10.34,8.21,17,8.21h41.61h34l5.61,51.89    c0.6,5.6-1.13,10.99-4.9,15.18s-8.94,6.5-14.57,6.5s-10.81-2.31-14.57-6.5c-3.76-4.19-5.5-9.58-4.9-15.18l2.95-27.28    c0.42-3.84-2.36-7.3-6.21-7.71c-3.84-0.43-7.3,2.36-7.71,6.21l-2.95,27.28c-1.02,9.46,2.04,18.96,8.4,26.04    s15.47,11.15,24.99,11.15c9.52,0,18.63-4.06,24.99-11.15s9.42-16.57,8.4-26.04l-5.45-50.38h33.81c6.66,0,12.85-2.99,17-8.21    c4.09-5.15,5.59-11.76,4.1-18.13C463.66,311.11,453.15,294.43,438.35,282.53z M452.87,338.93c-1.47,1.85-3.67,2.92-6.03,2.92    h-41.61h-40.28h-41.61c-2.36,0-4.56-1.06-6.03-2.92c-0.83-1.05-2.13-3.26-1.43-6.25c7.52-32.32,35.98-54.89,69.22-54.89    c33.23,0,61.69,22.57,69.22,54.89C455,335.67,453.71,337.88,452.87,338.93z"/>
			<path fill="#FFFFFF"  class="st1" d="M75.39,192.97c0,13.64,11.09,24.73,24.73,24.73s24.73-11.09,24.73-24.73s-11.09-24.73-24.73-24.73    S75.39,179.33,75.39,192.97z M100.12,182.24c5.92,0,10.73,4.81,10.73,10.73s-4.81,10.73-10.73,10.73s-10.73-4.81-10.73-10.73    S94.2,182.24,100.12,182.24z"/>
			<path fill="#FFFFFF"  class="st1" d="M214.72,160.8c-13.64,0-24.73,11.09-24.73,24.73s11.09,24.73,24.73,24.73c13.64,0,24.73-11.09,24.73-24.73    S228.35,160.8,214.72,160.8z M214.72,196.26c-5.92,0-10.73-4.81-10.73-10.73s4.81-10.73,10.73-10.73    c5.92,0,10.73,4.81,10.73,10.73S220.63,196.26,214.72,196.26z"/>
			<path fill="#FFFFFF"  class="st1" d="M182.25,133.96c0-13.64-11.09-24.73-24.73-24.73s-24.73,11.09-24.73,24.73s11.09,24.73,24.73,24.73    S182.25,147.59,182.25,133.96z M146.79,133.96c0-5.92,4.81-10.73,10.73-10.73c5.92,0,10.73,4.81,10.73,10.73    c0,5.92-4.81,10.73-10.73,10.73C151.6,144.69,146.79,139.87,146.79,133.96z"/>
			<path fill="#FFFFFF"  class="st1" d="M261.93,103.44c-13.64,0-24.73,11.09-24.73,24.73s11.09,24.73,24.73,24.73s24.73-11.09,24.73-24.73    S275.57,103.44,261.93,103.44z M261.93,138.91c-5.92,0-10.73-4.81-10.73-10.73s4.81-10.73,10.73-10.73s10.73,4.81,10.73,10.73    S267.85,138.91,261.93,138.91z"/>
			<path fill="#FFFFFF"  class="st1" d="M306.87,217.7c13.64,0,24.73-11.09,24.73-24.73s-11.09-24.73-24.73-24.73s-24.73,11.09-24.73,24.73    S293.24,217.7,306.87,217.7z M306.87,182.24c5.92,0,10.73,4.81,10.73,10.73s-4.81,10.73-10.73,10.73    c-5.92,0-10.73-4.81-10.73-10.73S300.96,182.24,306.87,182.24z"/>
			<path fill="#FFFFFF"  class="st1" d="M367.36,295.46c-10.32,0-18.71,8.39-18.71,18.71s8.39,18.71,18.71,18.71s18.71-8.39,18.71-18.71    S377.67,295.46,367.36,295.46z M367.36,318.87c-2.6,0-4.71-2.11-4.71-4.71s2.11-4.71,4.71-4.71c2.6,0,4.71,2.11,4.71,4.71    S369.95,318.87,367.36,318.87z"/>
			<path fill="#FFFFFF"  class="st1" d="M418.66,295.46c-10.32,0-18.71,8.39-18.71,18.71s8.39,18.71,18.71,18.71s18.71-8.39,18.71-18.71    S428.97,295.46,418.66,295.46z M418.66,318.87c-2.6,0-4.71-2.11-4.71-4.71s2.11-4.71,4.71-4.71c2.6,0,4.71,2.11,4.71,4.71    S421.25,318.87,418.66,318.87z"/>
		</g>
	</g>
</svg>