<?xml version="1.0" ?>
<svg data-name="Layer 1" id="Layer_1" viewBox="0 0 64 64" xmlns="http://www.w3.org/2000/svg">
	<path fill="#FFFFFF" d="M60,39H57a18.86,18.86,0,0,0-4.4169-13.7744C50.6755,19.4583,40.5018,12.6549,34.0483,12.28L30.9365,9.168a4.0872,4.0872,0,1,0-7.5908-1.8008,4.1054,4.1054,0,0,0-3.1689,1.1992c-3.3735,3.538,1.0509,8.7248,4.9912,6.37l3.1508,3.1508q.0248.4422.0908.93a17.7441,17.7441,0,0,0-7.3339,1.8383,13.8166,13.8166,0,0,0-3.0005-.5491L14.9365,17.168a4.0872,4.0872,0,1,0-7.5908-1.8008,4.1039,4.1039,0,0,0-3.1689,1.1992c-3.3735,3.538,1.0509,8.7248,4.9912,6.37l3.1383,3.1383a13.8174,13.8174,0,0,0,.55,3.0044,17.0272,17.0272,0,0,0-1.3622,11.8679A5.833,5.833,0,0,0,7.1475,39H4a1,1,0,0,0-1,1v3.1475A5.8221,5.8221,0,0,0,4.4578,47c-.7112-.08-1.4413.1789-1.4578,1a9.01,9.01,0,0,0,8,8.941V58a3.0033,3.0033,0,0,0,3,3H50a3.0033,3.0033,0,0,0,3-3V56.941A9.01,9.01,0,0,0,61,48c-.0166-.82-.7461-1.0806-1.4578-1A5.8221,5.8221,0,0,0,61,43.1475V40A1,1,0,0,0,60,39Zm-5,.3053a5.9556,5.9556,0,0,0-3,2.2777,5.9135,5.9135,0,0,0-4.1708-2.54C47.38,38.9625,44.5084,39.0131,44,39a1,1,0,0,0-1,1v3.1475A5.9407,5.9407,0,0,0,44.45,47H19.5479A6.68,6.68,0,0,0,21,41.9805c2.7667,2.4046,5.1526,3.4539,8.107,2.84.0834-.0164.1667-.0321.25-.0515.02-.0054.0407-.0124.061-.0179a8.9006,8.9006,0,0,0,4.4584-2.8078l.0169-.0171c.0129-.0115.0244-.0235.0361-.0362a9.1231,9.1231,0,0,0,2.79-4.3731c.0181-.063.04-.1258.0561-.1888.0142-.061.0254-.1223.0379-.1835C38.1573,30.083,29.5168,24.5311,23.83,21.8616,27.28,20.45,35.0783,21.158,39,21,48.8837,21.085,55.8719,29.492,55,39.3053ZM48.8525,47A3.8572,3.8572,0,0,1,45,43.1475V41h2.1475A3.8572,3.8572,0,0,1,51,44.8525V47Zm-35.499-6.8359a15.1451,15.1451,0,0,1,.4893-8.3781A34.1834,34.1834,0,0,0,18.1865,39,7.0941,7.0941,0,0,0,13.3535,40.1641Zm1.7022-17.1084a2.5469,2.5469,0,0,1,1.0048-.5963,4.7227,4.7227,0,0,1,1.3027-.1842c.0552,0,.1052-.0068.1616-.0049a11.6806,11.6806,0,0,1,3.3127.5932c5.1711,1.8429,14.8079,7.2163,14.038,13.7738C34.46,39.0344,30.9974,42.49,28.6,42.8837c-2.0416.34-3.8784-.5291-5.5933-1.831-3.5763-2.8544-6.7516-8.02-8.1366-12.2021-.6692-2.1491-.7691-3.9139-.3-5.0426A2.46,2.46,0,0,1,15.0557,23.0557ZM13,44.8525A3.8656,3.8656,0,0,1,16.1626,41.07,25.0517,25.0517,0,0,1,19,41v2.1475a3.914,3.914,0,0,1-1.2412,2.8148C16.5483,47.212,14.5771,47.0033,13,47ZM46.2225,20.5244C42.085,18.3948,34.9367,19.1029,30.4219,19c-.3094-1.9083-.0315-3.0045.4095-3.6514a2.3517,2.3517,0,0,1,.1532-.2c.0375-.0435.0747-.0868.1135-.1253a2.3574,2.3574,0,0,1,.4382-.3356,2.8281,2.8281,0,0,1,.5167-.2261,5.12,5.12,0,0,1,.8449-.1733c.2893-.045.6235.0085.9255-.0446,3.8063.1073,9.5841,3.1857,13.3543,6.736Q46.7067,20.7379,46.2225,20.5244ZM25.2559,12.61a.9985.9985,0,0,0-.6895.2753,2.0793,2.0793,0,1,1-.0176-2.9228,1,1,0,0,0,1.4317-1.3965,2.0793,2.0793,0,1,1,2.9228-.0176,1,1,0,0,0,0,1.4141l2.5752,2.5752a4.6284,4.6284,0,0,0-2.94,2.94l-2.5752-2.5752A.9967.9967,0,0,0,25.2559,12.61Zm-16,8a.9985.9985,0,0,0-.69.2753,2.0793,2.0793,0,1,1-.0176-2.9228,1,1,0,0,0,1.4317-1.3965,2.0793,2.0793,0,1,1,2.9228-.0176,1,1,0,0,0,0,1.4141l2.5752,2.5752a4.4436,4.4436,0,0,0-2.94,2.94L9.9629,20.9033A.9967.9967,0,0,0,9.2559,20.61ZM5,43.1475V41H7.1475A3.8572,3.8572,0,0,1,11,44.8525V47H8.8525A3.8572,3.8572,0,0,1,5,43.1475ZM51,58a1.0006,1.0006,0,0,1-1,1H14a1.0006,1.0006,0,0,1-1-1V57H51Zm1-3H12a7.0106,7.0106,0,0,1-6.9287-6H58.9287A7.0106,7.0106,0,0,1,52,55Zm1-8V44.8525a3.9,3.9,0,0,1,1.2548-2.8259C55.4625,40.7916,57.4324,40.9968,59,41v2.1475A3.8572,3.8572,0,0,1,55.1475,47Z"/>
</svg>