<?xml version="1.0" ?><!DOCTYPE svg  PUBLIC '-//W3C//DTD SVG 1.1//EN'  'http://www.w3.org/Graphics/SVG/1.1/DTD/svg11.dtd'><svg enable-background="new 0 0 75 75" height="75px" id="Layer_1" version="1.1" viewBox="0 0 75 75" width="75px" xml:space="preserve" xmlns="http://www.w3.org/2000/svg" xmlns:xlink="http://www.w3.org/1999/xlink"><g><g><g><path d="M37.501,45.125c-0.524,0-1.041-0.138-1.494-0.399l-4.017-2.321c-0.921-0.53-1.493-1.521-1.493-2.587     v-4.637c0-1.066,0.573-2.058,1.496-2.588l4.014-2.317c0.91-0.524,2.082-0.523,2.988,0l4.015,2.318     c0.921,0.53,1.493,1.521,1.493,2.587v4.637c0,1.066-0.572,2.057-1.494,2.587l-4.015,2.32     C38.541,44.987,38.024,45.125,37.501,45.125z M37.502,31.376c-0.261,0-0.519,0.069-0.746,0.199l-4.015,2.318     c-0.459,0.264-0.744,0.757-0.744,1.288v4.637c0,0.531,0.284,1.024,0.742,1.288l4.018,2.321c0.45,0.259,1.037,0.26,1.488,0     l4.015-2.32c0.459-0.264,0.743-0.757,0.743-1.288v-4.637c0-0.531-0.284-1.024-0.742-1.288l-4.017-2.319     C38.019,31.445,37.762,31.376,37.502,31.376z" fill="#FFFFFF"/></g><g><path d="M37.499,69.492c-1.646,0-2.986-1.34-2.986-2.986V65.24l-0.158,0.091c-0.454,0.262-0.97,0.401-1.492,0.401     c-1.064,0-2.056-0.572-2.589-1.493c-0.823-1.427-0.333-3.257,1.092-4.082l0.949-0.548c-0.848-0.16-1.601-0.682-2.041-1.443     c-0.823-1.425-0.334-3.256,1.091-4.081l2.781-1.607l-7.944-4.587l0.001,3.212c0,0.798-0.31,1.549-0.874,2.113     s-1.314,0.875-2.113,0.875c-0.908,0-1.724-0.408-2.272-1.049l0,1.098c0,1.648-1.34,2.989-2.987,2.989s-2.987-1.34-2.987-2.986     v-0.186l-1.098,0.634c-0.454,0.263-0.97,0.401-1.49,0.401c-1.064,0-2.056-0.572-2.589-1.493c-0.4-0.692-0.506-1.498-0.299-2.269     c0.207-0.771,0.701-1.415,1.393-1.814l1.097-0.633l-0.16-0.093c-1.427-0.823-1.918-2.653-1.095-4.081     c0.534-0.922,1.526-1.494,2.59-1.494c0.522,0,1.038,0.139,1.492,0.401l0.951,0.549c-0.282-0.796-0.227-1.706,0.227-2.492     c0.531-0.921,1.523-1.494,2.588-1.494c0.522,0,1.039,0.139,1.493,0.401l2.781,1.606v-9.177l-2.78,1.608     c-0.456,0.263-0.972,0.401-1.492,0.401c-1.066,0-2.058-0.573-2.589-1.495c-0.399-0.689-0.506-1.494-0.299-2.265     c0.02-0.076,0.043-0.151,0.069-0.225l-0.952,0.549c-0.45,0.262-0.966,0.401-1.491,0.401c-1.064,0-2.057-0.572-2.589-1.494     c-0.399-0.691-0.505-1.496-0.299-2.267c0.207-0.771,0.701-1.416,1.393-1.814l0.159-0.091l-1.095-0.633     c-0.691-0.398-1.186-1.042-1.392-1.813C9.289,23,9.395,22.195,9.794,21.504c0.532-0.922,1.524-1.494,2.588-1.494     c0.522,0,1.039,0.139,1.493,0.401l1.097,0.634v-0.186c0-1.646,1.34-2.986,2.986-2.986c1.648,0,2.988,1.34,2.988,2.988l0,1.097     c0.548-0.641,1.362-1.048,2.27-1.048c1.647,0,2.987,1.34,2.987,2.988l-0.001,3.211l7.946-4.587l-2.781-1.605     c-1.425-0.822-1.917-2.651-1.095-4.078c0.439-0.764,1.194-1.288,2.045-1.446l-0.952-0.55c-1.426-0.823-1.917-2.652-1.094-4.079     c0.533-0.923,1.526-1.496,2.591-1.496c0.522,0,1.038,0.139,1.491,0.401l0.159,0.092V8.494c0-1.646,1.34-2.986,2.986-2.986     c1.648,0,2.988,1.34,2.988,2.986v1.269l0.159-0.092c0.454-0.262,0.97-0.401,1.492-0.401c1.064,0,2.056,0.572,2.589,1.493     c0.823,1.429,0.332,3.259-1.093,4.082l-0.947,0.547c0.847,0.16,1.599,0.682,2.039,1.442c0.4,0.691,0.506,1.497,0.299,2.268     s-0.701,1.416-1.392,1.814l-2.785,1.607l7.947,4.587l-0.001-3.211c0-1.648,1.34-2.989,2.986-2.989     c0.909,0,1.725,0.408,2.273,1.05v-1.099c0-1.648,1.34-2.988,2.986-2.988c1.648,0,2.988,1.34,2.988,2.986v0.186l1.098-0.634     c0.453-0.263,0.969-0.401,1.492-0.401c1.065,0,2.058,0.573,2.588,1.495c0.399,0.69,0.505,1.496,0.298,2.267     c-0.207,0.771-0.701,1.415-1.393,1.814l-1.097,0.633l0.16,0.093c1.425,0.824,1.916,2.655,1.093,4.081     c-0.533,0.922-1.525,1.495-2.589,1.495c-0.52,0-1.035-0.139-1.491-0.4l-0.952-0.55c0.281,0.796,0.227,1.705-0.228,2.491     c-0.534,0.922-1.526,1.494-2.59,1.494c-0.524,0-1.041-0.139-1.493-0.402l-2.778-1.604v9.171l2.779-1.606     c0.455-0.262,0.97-0.4,1.491-0.4c1.064,0,2.057,0.572,2.59,1.492c0.455,0.789,0.509,1.7,0.227,2.497l0.957-0.552     c0.453-0.262,0.968-0.4,1.49-0.4c1.064,0,2.056,0.572,2.589,1.493c0.823,1.429,0.332,3.26-1.095,4.082l-0.159,0.092l1.094,0.632     c1.425,0.822,1.917,2.652,1.094,4.08c-0.534,0.923-1.526,1.495-2.59,1.495c-0.521,0-1.036-0.139-1.49-0.401l-1.096-0.633v0.183     c0,0.798-0.31,1.548-0.873,2.113c-0.564,0.564-1.313,0.875-2.111,0.875c-1.646,0-2.988-1.338-2.99-2.983l0-1.1     c-0.548,0.641-1.363,1.048-2.27,1.048c-1.647,0-2.987-1.34-2.987-2.986l-0.001-3.212l-7.944,4.585l2.784,1.606     c1.425,0.821,1.916,2.652,1.093,4.08c-0.44,0.762-1.194,1.286-2.044,1.444l0.953,0.55c1.425,0.823,1.916,2.654,1.093,4.081     c-0.535,0.921-1.526,1.493-2.589,1.493c-0.524,0-1.041-0.139-1.495-0.402l-0.158-0.091v1.267     C40.487,68.152,39.147,69.492,37.499,69.492z M35.263,63.189c0.129,0,0.259,0.033,0.375,0.1c0.232,0.134,0.375,0.382,0.375,0.65     v2.566c0,0.819,0.667,1.486,1.486,1.486c0.821,0,1.488-0.667,1.488-1.486v-2.566c0-0.268,0.143-0.516,0.375-0.649     c0.232-0.134,0.518-0.134,0.75,0l1.284,0.742c0.688,0.399,1.634,0.143,2.034-0.543c0.409-0.709,0.165-1.621-0.545-2.031     l-3.525-2.035c-0.232-0.134-0.375-0.381-0.375-0.649v-0.906c0-0.268,0.143-0.516,0.375-0.649c0.232-0.134,0.518-0.134,0.75,0     l1.285,0.742c0.691,0.399,1.639,0.139,2.032-0.544c0.409-0.711,0.166-1.623-0.543-2.032l-3.524-2.034     c-0.232-0.134-0.375-0.381-0.375-0.649v-0.445c0-0.268,0.143-0.516,0.375-0.649l9.424-5.439c0.233-0.134,0.519-0.134,0.75,0     l0.385,0.223c0.232,0.134,0.375,0.381,0.375,0.648l0.002,4.066c0,0.82,0.667,1.487,1.486,1.487c0.821,0,1.488-0.667,1.488-1.488     l-0.001-1.48c0-0.268,0.143-0.516,0.375-0.65c0.232-0.134,0.519-0.134,0.75,0l0.782,0.451c0.232,0.134,0.375,0.382,0.375,0.649     l0.002,4.068c0.001,0.818,0.669,1.485,1.488,1.485c0.397,0,0.771-0.155,1.052-0.436c0.28-0.281,0.435-0.655,0.435-1.052v-1.483     c0-0.268,0.143-0.516,0.375-0.649c0.232-0.134,0.519-0.134,0.75,0l2.221,1.283c0.696,0.4,1.637,0.137,2.032-0.545     c0.409-0.71,0.165-1.622-0.545-2.031l-2.219-1.282c-0.232-0.134-0.375-0.381-0.375-0.649c0-0.268,0.143-0.515,0.375-0.649     l1.284-0.742c0.711-0.41,0.955-1.322,0.546-2.033c-0.394-0.68-1.339-0.943-2.03-0.543l-3.526,2.034     c-0.231,0.134-0.517,0.133-0.75,0l-0.785-0.453c-0.232-0.134-0.375-0.381-0.375-0.649s0.143-0.516,0.375-0.649l1.285-0.742     c0.71-0.41,0.954-1.321,0.543-2.033c-0.394-0.68-1.342-0.94-2.032-0.543l-3.52,2.035c-0.233,0.134-0.519,0.134-0.752,0     l-0.384-0.223c-0.231-0.134-0.374-0.381-0.374-0.649V32.061c0-0.268,0.143-0.515,0.375-0.649l0.385-0.223     c0.231-0.135,0.518-0.135,0.75,0l3.521,2.033c0.687,0.398,1.636,0.139,2.033-0.545c0.41-0.709,0.165-1.621-0.545-2.031     l-1.284-0.742c-0.232-0.134-0.375-0.382-0.375-0.65s0.144-0.516,0.375-0.649l0.783-0.451c0.232-0.134,0.517-0.133,0.75,0     l3.521,2.033c0.7,0.401,1.637,0.141,2.032-0.544c0.409-0.71,0.165-1.622-0.544-2.032l-1.285-0.742     c-0.232-0.134-0.375-0.381-0.375-0.649s0.143-0.516,0.375-0.649l2.223-1.283c0.344-0.199,0.59-0.52,0.693-0.903     s0.05-0.785-0.148-1.129c-0.394-0.684-1.343-0.943-2.03-0.544l-2.224,1.284c-0.232,0.134-0.518,0.134-0.75,0     c-0.232-0.134-0.375-0.381-0.375-0.649v-1.484c0-0.819-0.667-1.486-1.488-1.486c-0.819,0-1.486,0.667-1.486,1.488v4.064     c0,0.268-0.143,0.515-0.375,0.649l-0.784,0.453c-0.231,0.134-0.518,0.134-0.75,0c-0.232-0.134-0.375-0.381-0.375-0.649     l-0.001-1.482c0-0.82-0.667-1.487-1.486-1.487c-0.821,0-1.488,0.667-1.488,1.488l0.002,4.064c0,0.269-0.143,0.517-0.376,0.65     l-0.387,0.223c-0.231,0.134-0.517,0.133-0.749,0l-9.424-5.439c-0.232-0.134-0.375-0.381-0.375-0.649v-0.447     c0-0.268,0.143-0.516,0.375-0.649l3.522-2.033c0.344-0.199,0.59-0.519,0.692-0.903c0.103-0.384,0.05-0.785-0.148-1.129     c-0.395-0.681-1.339-0.943-2.031-0.544l-1.286,0.742c-0.232,0.134-0.518,0.134-0.75,0c-0.232-0.134-0.375-0.381-0.375-0.649     v-0.904c0-0.268,0.143-0.516,0.375-0.649l3.523-2.033c0.71-0.41,0.954-1.322,0.544-2.033c-0.395-0.68-1.341-0.941-2.031-0.543     l-1.284,0.742c-0.232,0.134-0.518,0.134-0.75,0c-0.232-0.134-0.375-0.381-0.375-0.649V8.494c0-0.819-0.667-1.486-1.488-1.486     c-0.819,0-1.486,0.667-1.486,1.486v2.566c0,0.268-0.143,0.516-0.375,0.649c-0.232,0.134-0.518,0.134-0.75,0l-1.285-0.742     c-0.692-0.4-1.638-0.138-2.032,0.546c-0.409,0.709-0.165,1.621,0.545,2.03l3.521,2.033c0.232,0.134,0.375,0.381,0.375,0.649     v0.906c0,0.268-0.143,0.515-0.375,0.649c-0.231,0.134-0.518,0.134-0.75,0l-1.284-0.74c-0.692-0.402-1.638-0.139-2.031,0.544     c-0.409,0.711-0.165,1.622,0.545,2.031l3.519,2.032c0.232,0.134,0.375,0.381,0.375,0.649v0.447c0,0.268-0.143,0.516-0.375,0.649     l-9.422,5.439c-0.232,0.134-0.518,0.134-0.749,0l-0.387-0.223c-0.233-0.134-0.376-0.382-0.376-0.65l0.001-4.064     c0-0.821-0.667-1.488-1.486-1.488c-0.82,0-1.487,0.667-1.487,1.486l-0.001,1.485c0,0.268-0.143,0.516-0.375,0.649     c-0.231,0.134-0.518,0.133-0.75,0l-0.784-0.453c-0.232-0.134-0.375-0.382-0.375-0.65l0.002-4.066c0-0.82-0.667-1.488-1.487-1.488     s-1.487,0.667-1.487,1.486l-0.001,1.485c0,0.268-0.143,0.515-0.375,0.649c-0.231,0.134-0.518,0.133-0.75,0l-2.222-1.283     c-0.691-0.4-1.637-0.139-2.031,0.544c-0.199,0.344-0.251,0.745-0.148,1.129s0.349,0.705,0.693,0.903l2.221,1.284     c0.232,0.134,0.375,0.382,0.375,0.65s-0.144,0.516-0.375,0.649l-1.285,0.74c-0.344,0.198-0.59,0.519-0.692,0.902     s-0.05,0.785,0.149,1.129c0.395,0.684,1.348,0.941,2.029,0.545l3.525-2.033c0.231-0.134,0.517-0.134,0.749,0l0.783,0.451     c0.232,0.134,0.375,0.381,0.375,0.649s-0.143,0.516-0.375,0.65l-1.282,0.74c-0.344,0.199-0.59,0.52-0.693,0.904     c-0.103,0.384-0.049,0.784,0.149,1.127c0.393,0.683,1.334,0.946,2.032,0.544l3.515-2.033c0.232-0.134,0.519-0.135,0.752,0.001     l0.39,0.227c0.231,0.134,0.373,0.381,0.373,0.648v10.879c0,0.268-0.143,0.516-0.376,0.65l-0.387,0.223     c-0.231,0.134-0.518,0.133-0.749,0l-3.52-2.033c-0.691-0.4-1.638-0.139-2.032,0.543c-0.411,0.71-0.166,1.622,0.544,2.033     l1.284,0.742c0.232,0.134,0.375,0.382,0.375,0.65c0,0.268-0.144,0.516-0.376,0.649l-0.784,0.451     c-0.231,0.134-0.517,0.134-0.749,0l-3.521-2.033c-0.69-0.399-1.637-0.138-2.033,0.544c-0.409,0.71-0.165,1.622,0.546,2.031     l1.286,0.743c0.232,0.134,0.375,0.381,0.375,0.649s-0.143,0.516-0.375,0.649l-2.223,1.283c-0.344,0.199-0.59,0.52-0.693,0.903     s-0.05,0.785,0.148,1.129c0.395,0.681,1.337,0.945,2.031,0.544l2.222-1.283c0.231-0.134,0.518-0.134,0.75,0     c0.232,0.134,0.375,0.381,0.375,0.649l0.001,1.484c0,0.82,0.667,1.487,1.486,1.487c0.821,0,1.488-0.667,1.488-1.488l-0.002-4.066     c0-0.269,0.144-0.517,0.376-0.651l0.785-0.451c0.232-0.133,0.517-0.133,0.749,0.001c0.232,0.134,0.375,0.381,0.375,0.649v1.482     c0,0.819,0.668,1.486,1.488,1.486c0.397,0,0.771-0.155,1.052-0.436c0.28-0.281,0.435-0.655,0.435-1.052l-0.002-4.064     c0-0.269,0.144-0.518,0.377-0.651l0.389-0.223c0.231-0.132,0.516-0.132,0.748,0.001l9.42,5.439     c0.232,0.134,0.375,0.381,0.375,0.649v0.445c0,0.268-0.143,0.516-0.375,0.649l-3.52,2.033c-0.709,0.411-0.953,1.322-0.543,2.032     c0.395,0.683,1.338,0.945,2.033,0.543l1.281-0.74c0.231-0.134,0.518-0.134,0.75,0c0.232,0.134,0.375,0.381,0.375,0.649v0.904     c0,0.268-0.143,0.516-0.375,0.649l-3.521,2.033c-0.709,0.41-0.953,1.322-0.543,2.033c0.395,0.682,1.343,0.943,2.031,0.543     l1.283-0.742C35.003,63.223,35.133,63.189,35.263,63.189z M38.931,48.305c-0.173,0-0.345-0.06-0.484-0.177     c-0.191-0.162-0.511-0.354-0.948-0.354s-0.757,0.192-0.95,0.354c-0.241,0.202-0.584,0.232-0.857,0.075l-6.559-3.785     c-0.273-0.158-0.418-0.47-0.363-0.781c0.044-0.248,0.051-0.623-0.167-0.999c-0.217-0.377-0.545-0.559-0.783-0.646     c-0.296-0.108-0.494-0.389-0.494-0.705v-7.584c0-0.315,0.196-0.596,0.492-0.704c0.239-0.088,0.569-0.269,0.78-0.635     c0.217-0.375,0.211-0.75,0.167-0.997c-0.055-0.311,0.091-0.622,0.364-0.78l6.564-3.789c0.272-0.157,0.615-0.127,0.857,0.075     c0.192,0.162,0.513,0.354,0.948,0.354c0.433,0,0.754-0.193,0.948-0.356c0.242-0.202,0.584-0.232,0.857-0.075l6.562,3.789     c0.273,0.158,0.418,0.469,0.364,0.779c-0.043,0.248-0.05,0.623,0.167,1c0.212,0.368,0.543,0.549,0.783,0.637     c0.296,0.108,0.493,0.39,0.493,0.705v7.582c0,0.315-0.197,0.597-0.494,0.705c-0.238,0.086-0.567,0.269-0.784,0.644     c-0.217,0.377-0.211,0.753-0.167,1.001c0.055,0.311-0.091,0.622-0.364,0.779l-6.559,3.787     C39.189,48.271,39.06,48.305,38.931,48.305z M37.499,46.273c0.514,0,1.02,0.138,1.468,0.395l5.737-3.313     c0.002-0.517,0.136-1.024,0.391-1.468c0.256-0.444,0.629-0.814,1.078-1.074v-6.632c-0.45-0.258-0.816-0.621-1.075-1.067     c-0.26-0.452-0.393-0.951-0.393-1.467l-5.739-3.314c-0.896,0.519-2.038,0.518-2.933,0.002l-5.743,3.314     c-0.002,0.516-0.136,1.022-0.392,1.465c-0.257,0.445-0.622,0.807-1.071,1.065v6.633c0.449,0.259,0.815,0.624,1.076,1.076     c0.256,0.443,0.39,0.951,0.392,1.468l5.738,3.312C36.48,46.411,36.986,46.273,37.499,46.273z" fill="#FFFFFF"/></g></g></g></svg>