<?xml version="1.0" ?>
<svg viewBox="0 0 64 64" xmlns="http://www.w3.org/2000/svg">
	<defs>
		<style>.cls-1{fill:none;stroke:#FFF;stroke-linejoin:round;stroke-width:2px;}</style>
	</defs>
	<title/>
	<g data-name="Layer 11" id="Layer_11">
		<polygon class="cls-1" points="2 15 2 62 22 62 22 15 17 10 7 10 2 15"/>
		<polyline class="cls-1" points="17 10 17 6 7 6 7 10"/>
		<polyline class="cls-1" points="9 6 9 2 15 2 15 6"/>
		<rect class="cls-1" height="34" width="20" x="2" y="21"/>
		<rect class="cls-1" height="22" width="12" x="6" y="27"/>
		<path class="cls-1" d="M18,31H12a2,2,0,0,0-2,2h0a2,2,0,0,0,2,2h0a2,2,0,0,1,2,2h0a2,2,0,0,1-2,2h0a2,2,0,0,0-2,2h0a2,2,0,0,0,2,2h6"/>
		<path class="cls-1" d="M26,38H50a0,0,0,0,1,0,0V58a4,4,0,0,1-4,4H30a4,4,0,0,1-4-4V38A0,0,0,0,1,26,38Z"/>
		<path class="cls-1" d="M42,38V30l2-4V12h2a2,2,0,0,1,2,2V27l-2,4v7"/>
		<polyline class="cls-1" points="44 12 40 12 40 22 44 22"/>
		<line class="cls-1" x1="40" x2="44" y1="15" y2="15"/>
		<line class="cls-1" x1="40" x2="44" y1="18" y2="18"/>
		<path class="cls-1" d="M30,38V30l2-4V12h2a2,2,0,0,1,2,2V27l-2,4v7"/>
		<polyline class="cls-1" points="32 12 28 12 28 22 32 22"/>
		<line class="cls-1" x1="28" x2="32" y1="15" y2="15"/>
		<line class="cls-1" x1="28" x2="32" y1="18" y2="18"/>
		<line class="cls-1" x1="26" x2="50" y1="42" y2="42"/>
		<circle class="cls-1" cx="58" cy="12" r="4"/>
		<circle class="cls-1" cx="55" cy="25" r="3"/>
		<circle class="cls-1" cx="47" cy="5" r="3"/>
		<path class="cls-1" d="M38,42v8a2,2,0,0,0,2,2h0a2,2,0,0,0,2-2h0a2,2,0,0,1,2-2h0a2,2,0,0,1,2,2v4a2,2,0,0,0,2,2h0a2,2,0,0,0,2-2V42"/>
	</g>
</svg>