<?xml version="1.0" ?>
<svg id="cat2" style="enable-background:new 0 0 300 300;" version="1.1" viewBox="0 0 300 300" xml:space="preserve" xmlns="http://www.w3.org/2000/svg" xmlns:xlink="http://www.w3.org/1999/xlink">
	<g>
		<path d="   M232,107.992V40.131c-1.322-0.087-2.656-0.131-4-0.131c-22.537,0-42.172,12.426-52.428,30.8" style="fill-rule:evenodd;clip-rule:evenodd;fill:none;stroke:#FFFFFF;stroke-width:8;stroke-linecap:round;stroke-linejoin:round;stroke-miterlimit:10;"/>
		<path d="   M72,107.992V40.131C73.322,40.044,74.656,40,76,40c21.374,0,40.138,11.176,50.766,28.004" style="fill-rule:evenodd;clip-rule:evenodd;fill:none;stroke:#FFFFFF;stroke-width:8;stroke-linecap:round;stroke-linejoin:round;stroke-miterlimit:10;"/>
		<circle cx="152" cy="168" r="100" style="fill-rule:evenodd;clip-rule:evenodd;fill:none;stroke:#FFFFFF;stroke-width:8;stroke-linecap:round;stroke-linejoin:round;stroke-miterlimit:10;"/>
		<path d="   M100,144c0,8.837,7.163,16,16,16c8.836,0,16-7.163,16-16" style="fill:none;stroke:#FFFFFF;stroke-width:8;stroke-linecap:round;stroke-linejoin:round;stroke-miterlimit:10;"/>
		<path d="   M168,144c0,8.837,7.163,16,16,16c8.836,0,16-7.163,16-16" style="fill:none;stroke:#FFFFFF;stroke-width:8;stroke-linecap:round;stroke-linejoin:round;stroke-miterlimit:10;"/>
		<path d="   M120,204c0,8.837,7.163,16,16,16c8.836,0,16-7.163,16-16" style="fill:none;stroke:#FFFFFF;stroke-width:8;stroke-linecap:round;stroke-linejoin:round;stroke-miterlimit:10;"/>
		<path d="   M152,204c0,8.837,7.163,16,16,16c8.836,0,16-7.163,16-16" style="fill:none;stroke:#FFFFFF;stroke-width:8;stroke-linecap:round;stroke-linejoin:round;stroke-miterlimit:10;"/>
		<polygon points="   152,208 172,180 159.9,172 144.339,172 132,180  " style="fill-rule:evenodd;clip-rule:evenodd;fill:none;stroke:#FFFFFF;stroke-width:8;stroke-linecap:round;stroke-linejoin:round;stroke-miterlimit:10;"/>
		<line style="fill:none;stroke:#FFFFFF;stroke-width:8;stroke-linecap:round;stroke-linejoin:round;stroke-miterlimit:10;" x1="80" x2="32" y1="164" y2="164"/>
		<line style="fill:none;stroke:#FFFFFF;stroke-width:8;stroke-linecap:round;stroke-linejoin:round;stroke-miterlimit:10;" x1="80" x2="32" y1="180" y2="180"/>
		<line style="fill:none;stroke:#FFFFFF;stroke-width:8;stroke-linecap:round;stroke-linejoin:round;stroke-miterlimit:10;" x1="80" x2="32" y1="196" y2="196"/>
		<line style="fill:none;stroke:#FFFFFF;stroke-width:8;stroke-linecap:round;stroke-linejoin:round;stroke-miterlimit:10;" x1="276" x2="228" y1="164" y2="164"/>
		<line style="fill:none;stroke:#FFFFFF;stroke-width:8;stroke-linecap:round;stroke-linejoin:round;stroke-miterlimit:10;" x1="276" x2="228" y1="180" y2="180"/>
		<line style="fill:none;stroke:#FFFFFF;stroke-width:8;stroke-linecap:round;stroke-linejoin:round;stroke-miterlimit:10;" x1="276" x2="228" y1="196" y2="196"/>
	</g>
	<g/>
	<g/>
	<g/>
	<g/>
	<g/>
	<g/>
	<g/>
	<g/>
	<g/>
	<g/>
	<g/>
	<g/>
	<g/>
	<g/>
	<g/>
</svg>