<?xml version="1.0" ?><svg id="Layer_1" style="enable-background:new 0 0 395.066 395.066;" version="1.1" viewBox="0 0 395.066 395.066" xml:space="preserve" xmlns="http://www.w3.org/2000/svg" xmlns:xlink="http://www.w3.org/1999/xlink"><g><path d="M330.195,164.506h-0.201v-53.864c0-0.001,0-0.002,0-0.003c0-0.297-0.036-0.592-0.089-0.885   c-0.014-0.075-0.027-0.15-0.044-0.224c-0.063-0.276-0.142-0.549-0.252-0.813c-0.015-0.036-0.035-0.068-0.051-0.103   c-0.072-0.161-0.145-0.322-0.235-0.477L284.71,31.03V16.556C284.71,7.427,277.283,0,268.154,0H126.702   c-9.128,0-16.555,7.427-16.555,16.556v14.491l-44.603,77.092c-0.089,0.153-0.161,0.312-0.232,0.471   c-0.017,0.038-0.038,0.072-0.054,0.11c-0.11,0.264-0.189,0.536-0.252,0.811c-0.017,0.074-0.031,0.149-0.044,0.225   c-0.053,0.293-0.089,0.588-0.089,0.885c0,0.001,0,0.001,0,0.001v53.865v171.405v54.155c0,2.761,2.239,5,5,5h255.123   c2.762,0,5-2.239,5-5v-54.155h0.201V164.506z M239.425,174.506h80.569v151.405h-80.569V174.506z M239.425,164.506v-48.864h78.853   h1.717v48.864H239.425z M279.713,42.363l36.573,63.213c-15.634-0.687-29.934-9.393-37.657-23.106l-10.915-19.379L279.713,42.363z    M261.898,73.142l8.018,14.235c4.157,7.381,9.88,13.573,16.611,18.266h-43.433L261.898,73.142z M120.146,16.556   c0-3.615,2.94-6.556,6.555-6.556h141.453c3.615,0,6.556,2.941,6.556,6.556v10.833H120.146V16.556z M118.03,37.388h153   l-39.49,68.254h-153L118.03,37.388z M74.871,115.643h154.554v48.864H74.871V115.643z M229.425,325.911H74.871V174.506h154.554   V325.911z M74.871,335.911h154.554v49.155H74.871V335.911z M319.994,385.066h-80.569v-49.155h80.569V385.066z"/><path d="M83.889,247.04l4.222,2.959c7.235,5.069,17.057,4.254,23.356-1.942l1.064-1.047l10.92,59.261   c0.25,1.357,1.045,2.488,2.122,3.218c0.016,0.011,0.031,0.022,0.047,0.033c0.242,0.16,0.496,0.298,0.764,0.415   c0.032,0.014,0.061,0.031,0.094,0.044c0.268,0.11,0.546,0.197,0.834,0.259c0.031,0.007,0.06,0.019,0.092,0.025   c0.313,0.062,0.634,0.1,0.964,0.1h0.026h47.506c0.324,0,0.64-0.036,0.948-0.096c0.109-0.021,0.21-0.058,0.316-0.086   c0.195-0.051,0.388-0.104,0.573-0.178c0.117-0.046,0.226-0.104,0.338-0.159c0.164-0.08,0.325-0.163,0.479-0.26   c0.107-0.068,0.209-0.141,0.311-0.217c0.145-0.107,0.283-0.221,0.416-0.343c0.092-0.085,0.18-0.171,0.266-0.262   c0.124-0.133,0.237-0.274,0.347-0.42c0.075-0.1,0.149-0.198,0.216-0.303c0.098-0.155,0.181-0.318,0.263-0.484   c0.055-0.113,0.115-0.221,0.162-0.339c0.071-0.179,0.122-0.367,0.173-0.556c0.031-0.115,0.073-0.226,0.096-0.345   c0.003-0.016,0.01-0.031,0.013-0.047l10.924-59.283l1.086,1.069c6.298,6.195,16.12,7.013,23.354,1.942l4.222-2.958   c1.956-1.37,3.126-3.523,3.212-5.909c0.085-2.385-0.928-4.617-2.78-6.123l-11.453-9.315l-5.6-4.774   c-5.306-4.524-10.071-9.681-14.166-15.328l-5.629-7.767c-3.445-4.867-9.061-7.772-15.023-7.772h-33.662   c-5.962,0-11.579,2.906-14.991,7.727l-5.688,7.848c-4.076,5.624-8.822,10.763-14.104,15.275l-5.612,4.793l-11.451,9.313   c-1.852,1.506-2.865,3.737-2.779,6.123C80.765,243.517,81.935,245.67,83.889,247.04z M133.395,300.365v-7.837   c0-2.615,2.127-4.743,4.742-4.743h28.021c2.615,0,4.743,2.127,4.743,4.743v7.837H133.395z M101.266,233.416   c0.031-0.025,0.062-0.051,0.093-0.077l5.658-4.833c5.882-5.024,11.167-10.748,15.706-17.01l5.721-7.893   c1.573-2.223,4.138-3.55,6.861-3.55h33.662c2.723,0,5.288,1.327,6.894,3.595l5.662,7.812c4.559,6.289,9.866,12.031,15.774,17.069   l5.645,4.812c0.029,0.025,0.06,0.05,0.09,0.074l8.976,7.3l-1.562,1.094c-3.285,2.302-7.743,1.93-10.603-0.882l-7.803-7.675   c-1.32-1.297-3.247-1.761-5.011-1.204c-1.764,0.557-3.077,2.042-3.412,3.862l-8.307,45.079c-2.517-2-5.693-3.205-9.15-3.205   h-28.021c-3.467,0-6.653,1.211-9.173,3.222l-8.306-45.075c-0.335-1.819-1.648-3.305-3.412-3.862   c-1.766-0.558-3.693-0.094-5.011,1.204l-7.78,7.654c-2.859,2.812-7.318,3.185-10.604,0.881l-1.561-1.094L101.266,233.416z"/><path d="M169.729,45.468c-12.459,0-22.595,10.136-22.595,22.595s10.136,22.595,22.595,22.595s22.595-10.136,22.595-22.595   S182.188,45.468,169.729,45.468z M169.729,80.657c-6.945,0-12.595-5.65-12.595-12.595s5.65-12.595,12.595-12.595   s12.595,5.65,12.595,12.595S176.674,80.657,169.729,80.657z"/></g><g/><g/><g/><g/><g/><g/><g/><g/><g/><g/><g/><g/><g/><g/><g/></svg>