<?xml version="1.0" ?>
<svg viewBox="0 0 64 64" xmlns="http://www.w3.org/2000/svg">
	<title/>
	<g id="Outline">
		<path d="M54.26,29.35a21.33,21.33,0,0,0-8.07-11.52A5.56,5.56,0,0,0,44,15.69c2.65-3.61,2.71-4.42,2.74-4.78A2.48,2.48,0,0,0,46,9c-.63-.65-1.94-1.39-4.56-1.24-2.46.14-4.84,2.18-6.22,3.6a5.47,5.47,0,0,0-6.5,0C27.38,9.9,25,7.85,22.53,7.71,19.91,7.56,18.6,8.3,18,9a2.49,2.49,0,0,0-.74,2c0,.35.09,1.17,2.77,4.76a5.3,5.3,0,0,0-2.21,2.21.89.89,0,0,0-.17.08A21.39,21.39,0,0,0,9.74,29.35C7.08,29.7,5,32.3,5,35.46c0,3.33,2.32,6,5.19,6.15,3.06,8.53,11.68,14.7,21.81,14.7s18.75-6.17,21.81-14.7c2.87-.1,5.19-2.82,5.19-6.15C59,32.31,56.92,29.7,54.26,29.35ZM41.58,9.71c2.1-.12,2.84.46,3,.64a.51.51,0,0,1,.18.38,16.75,16.75,0,0,1-2.44,3.88A1.92,1.92,0,0,0,42,16.1a1.88,1.88,0,0,0,.86,1.23c1.19.73,1.62,1.36,1.55,1.59a4.26,4.26,0,0,1-2.11,1.91,3.5,3.5,0,0,1-2.59.37,8.92,8.92,0,0,1-3-2.59,5.7,5.7,0,0,0,.37-.69c.35.14.79.32,1.32.56a1,1,0,0,0,.42.09,1,1,0,0,0,.42-1.9c-.71-.33-1.29-.56-1.72-.72,0-.07,0-.14,0-.21a4.21,4.21,0,0,0,0-.62A13.49,13.49,0,0,1,40,14.4a1,1,0,1,0-.35-2,14,14,0,0,0-2.77.77c-.08-.15-.17-.3-.26-.44C38.4,10.93,40.23,9.78,41.58,9.71ZM32,12.24a3.5,3.5,0,1,1-3.5,3.5A3.5,3.5,0,0,1,32,12.24ZM21.13,17.33A1.88,1.88,0,0,0,22,16.09a1.9,1.9,0,0,0-.33-1.48,17.43,17.43,0,0,1-2.44-3.86.52.52,0,0,1,.18-.4c.18-.18.92-.77,3-.64,1.35.07,3.18,1.22,5,3.06-.09.15-.18.29-.26.44a14.16,14.16,0,0,0-2.77-.77,1,1,0,0,0-1.17.8A1,1,0,0,0,24,14.4a13.18,13.18,0,0,1,2.55.72,4.3,4.3,0,0,0,0,.62c0,.07,0,.14,0,.21-.43.16-1,.39-1.72.72a1,1,0,0,0,.42,1.9,1.06,1.06,0,0,0,.42-.09c.52-.24,1-.43,1.32-.56a5.7,5.7,0,0,0,.37.69,8.92,8.92,0,0,1-3,2.59,3.5,3.5,0,0,1-2.59-.37,4.26,4.26,0,0,1-2.11-1.91C19.51,18.69,19.94,18.06,21.13,17.33ZM7,35.46a4.17,4.17,0,0,1,2.26-3.91,20.08,20.08,0,0,0,.3,7.93A4.07,4.07,0,0,1,7,35.46ZM32,54.31c-11.58,0-21-8.76-21-19.53a18.89,18.89,0,0,1,7-14.56,6.84,6.84,0,0,0,2.81,2.41,6.41,6.41,0,0,0,2.73.69A4,4,0,0,0,25,23.07a10.16,10.16,0,0,0,3.7-3,5.47,5.47,0,0,0,6.66,0,10.24,10.24,0,0,0,3.7,3,4,4,0,0,0,1.43.25,6.41,6.41,0,0,0,2.73-.69A6.84,6.84,0,0,0,46,20.22a18.86,18.86,0,0,1,7,14.56C53,45.55,43.58,54.31,32,54.31ZM54.44,39.48a20.08,20.08,0,0,0,.3-7.93A4.18,4.18,0,0,1,57,35.46,4.06,4.06,0,0,1,54.44,39.48Z"/>
		<path d="M23.29,29.7a3.86,3.86,0,0,0-3.61,4.05,1,1,0,0,0,2,0,1.87,1.87,0,0,1,1.61-2.05,1.87,1.87,0,0,1,1.61,2.05,1,1,0,0,0,2,0A3.86,3.86,0,0,0,23.29,29.7Z"/>
		<path d="M39.84,29.7a3.86,3.86,0,0,0-3.61,4.05,1,1,0,0,0,2,0,1.87,1.87,0,0,1,1.61-2.05,1.87,1.87,0,0,1,1.61,2.05,1,1,0,0,0,2,0A3.86,3.86,0,0,0,39.84,29.7Z"/>
		<path d="M36.35,41a1,1,0,0,0-1,1,3.35,3.35,0,1,1-6.7,0,1,1,0,0,0-2,0,5.35,5.35,0,1,0,10.7,0A1,1,0,0,0,36.35,41Z"/>
	</g>
</svg>